<mxfile host="app.diagrams.net" agent="Mozilla/5.0 (Windows NT 10.0; Win64; x64) AppleWebKit/537.36 (KHTML, like Gecko) Chrome/138.0.0.0 Safari/537.36" version="28.0.6">
  <diagram name="ページ1" id="8ZIXF9zP0urzj6trUGyH">
    <mxGraphModel dx="823" dy="716" grid="1" gridSize="10" guides="1" tooltips="1" connect="1" arrows="1" fold="1" page="1" pageScale="1" pageWidth="1654" pageHeight="1169" math="0" shadow="0">
      <root>
        <mxCell id="0" />
        <mxCell id="1" parent="0" />
        <mxCell id="ET8XrTdHhX_8uVkZOnhe-1" value="ポパーの３つの世界&lt;div&gt;各世界の特性&lt;/div&gt;" style="text;html=1;align=center;verticalAlign=middle;whiteSpace=wrap;rounded=0;fillColor=#dae8fc;strokeColor=#6c8ebf;" vertex="1" parent="1">
          <mxGeometry x="120" y="40" width="200" height="40" as="geometry" />
        </mxCell>
        <mxCell id="ET8XrTdHhX_8uVkZOnhe-2" value="物質的な物と状態&lt;div&gt;&lt;br&gt;&lt;/div&gt;&lt;div&gt;１　無機的&lt;/div&gt;&lt;div&gt;　宇宙の物質とエネルギー&lt;/div&gt;&lt;div&gt;&lt;br&gt;&lt;/div&gt;&lt;div&gt;２　生物&lt;/div&gt;&lt;div&gt;　全生物＝ヒトの構造と作用&lt;/div&gt;&lt;div&gt;&lt;br&gt;&lt;/div&gt;&lt;div&gt;３　人工物&lt;/div&gt;&lt;div&gt;　物質的基盤&lt;/div&gt;&lt;div&gt;　　ヒトの創造性&lt;/div&gt;&lt;div&gt;　　道具、機械、本、&lt;/div&gt;&lt;div&gt;　　美術作品、音楽&lt;/div&gt;&lt;div&gt;&lt;br&gt;&lt;/div&gt;&lt;div style=&quot;&quot;&gt;&lt;br&gt;&lt;/div&gt;" style="rounded=0;whiteSpace=wrap;html=1;align=left;labelPosition=center;verticalLabelPosition=middle;verticalAlign=top;" vertex="1" parent="1">
          <mxGeometry x="120" y="160" width="200" height="240" as="geometry" />
        </mxCell>
        <mxCell id="ET8XrTdHhX_8uVkZOnhe-3" value="世界１" style="text;html=1;align=center;verticalAlign=middle;whiteSpace=wrap;rounded=0;fillColor=#d5e8d4;strokeColor=#82b366;" vertex="1" parent="1">
          <mxGeometry x="160" y="120" width="120" height="40" as="geometry" />
        </mxCell>
        <mxCell id="ET8XrTdHhX_8uVkZOnhe-4" value="&lt;div style=&quot;&quot;&gt;意識状態&lt;/div&gt;&lt;div style=&quot;&quot;&gt;&lt;br&gt;&lt;/div&gt;&lt;div style=&quot;&quot;&gt;１　主観的知識&lt;/div&gt;&lt;div style=&quot;&quot;&gt;&lt;br&gt;&lt;/div&gt;&lt;div style=&quot;&quot;&gt;２　体験&lt;/div&gt;&lt;div style=&quot;&quot;&gt;　知覚&lt;/div&gt;&lt;div style=&quot;&quot;&gt;　思考&lt;/div&gt;&lt;div style=&quot;&quot;&gt;　情動&lt;/div&gt;&lt;div style=&quot;&quot;&gt;　本能的意図&lt;/div&gt;&lt;div style=&quot;&quot;&gt;　記憶&lt;/div&gt;&lt;div style=&quot;&quot;&gt;　夢&lt;/div&gt;&lt;div style=&quot;&quot;&gt;　創造的想像&lt;/div&gt;" style="rounded=0;whiteSpace=wrap;html=1;align=left;verticalAlign=top;" vertex="1" parent="1">
          <mxGeometry x="380" y="160" width="190" height="240" as="geometry" />
        </mxCell>
        <mxCell id="ET8XrTdHhX_8uVkZOnhe-5" value="世界２" style="text;html=1;align=center;verticalAlign=middle;whiteSpace=wrap;rounded=0;fillColor=#d5e8d4;strokeColor=#82b366;" vertex="1" parent="1">
          <mxGeometry x="415" y="120" width="120" height="40" as="geometry" />
        </mxCell>
        <mxCell id="ET8XrTdHhX_8uVkZOnhe-6" value="" style="shape=flexArrow;endArrow=classic;html=1;rounded=0;" edge="1" parent="1">
          <mxGeometry width="50" height="50" relative="1" as="geometry">
            <mxPoint x="330" y="220" as="sourcePoint" />
            <mxPoint x="367" y="220" as="targetPoint" />
          </mxGeometry>
        </mxCell>
        <mxCell id="ET8XrTdHhX_8uVkZOnhe-7" value="" style="shape=flexArrow;endArrow=classic;html=1;rounded=0;" edge="1" parent="1">
          <mxGeometry width="50" height="50" relative="1" as="geometry">
            <mxPoint x="363" y="260" as="sourcePoint" />
            <mxPoint x="330" y="260" as="targetPoint" />
          </mxGeometry>
        </mxCell>
        <mxCell id="ET8XrTdHhX_8uVkZOnhe-8" value="客観的意味での知覚&lt;div&gt;&lt;br&gt;&lt;/div&gt;&lt;div&gt;１　物質的基盤に符号化された文化的遺産&lt;/div&gt;&lt;div&gt;　哲学的&lt;/div&gt;&lt;div&gt;　神学的&lt;/div&gt;&lt;div&gt;　科学的&lt;/div&gt;&lt;div&gt;　歴史的&lt;/div&gt;&lt;div&gt;　文学的&lt;/div&gt;&lt;div&gt;　芸術的&lt;/div&gt;&lt;div&gt;　技術的&lt;/div&gt;&lt;div&gt;&lt;br&gt;&lt;/div&gt;&lt;div&gt;２　理論体系&lt;/div&gt;&lt;div&gt;　科学的問題&lt;/div&gt;&lt;div&gt;　批判的議論&lt;/div&gt;&lt;div&gt;&lt;br&gt;&lt;div style=&quot;&quot;&gt;&lt;br&gt;&lt;/div&gt;&lt;/div&gt;" style="rounded=0;whiteSpace=wrap;html=1;align=left;verticalAlign=top;" vertex="1" parent="1">
          <mxGeometry x="630" y="160" width="190" height="240" as="geometry" />
        </mxCell>
        <mxCell id="ET8XrTdHhX_8uVkZOnhe-9" value="世界３" style="text;html=1;align=center;verticalAlign=middle;whiteSpace=wrap;rounded=0;fillColor=#d5e8d4;strokeColor=#82b366;" vertex="1" parent="1">
          <mxGeometry x="665" y="120" width="120" height="40" as="geometry" />
        </mxCell>
        <mxCell id="ET8XrTdHhX_8uVkZOnhe-10" value="" style="shape=flexArrow;endArrow=classic;html=1;rounded=0;" edge="1" parent="1">
          <mxGeometry width="50" height="50" relative="1" as="geometry">
            <mxPoint x="580" y="220" as="sourcePoint" />
            <mxPoint x="617" y="220" as="targetPoint" />
          </mxGeometry>
        </mxCell>
        <mxCell id="ET8XrTdHhX_8uVkZOnhe-11" value="" style="shape=flexArrow;endArrow=classic;html=1;rounded=0;" edge="1" parent="1">
          <mxGeometry width="50" height="50" relative="1" as="geometry">
            <mxPoint x="613" y="260" as="sourcePoint" />
            <mxPoint x="580" y="260" as="targetPoint" />
          </mxGeometry>
        </mxCell>
        <mxCell id="ET8XrTdHhX_8uVkZOnhe-12" value="自我と脳（下）より" style="text;html=1;align=center;verticalAlign=middle;whiteSpace=wrap;rounded=0;" vertex="1" parent="1">
          <mxGeometry x="360" y="40" width="160" height="40" as="geometry" />
        </mxCell>
      </root>
    </mxGraphModel>
  </diagram>
</mxfile>
